PathFileType	4	(X/Y/Z)	./resultDataOpenSim/trcMotMarkerGrf/sub09/qtm-13-08.trc
DataRate	CameraRate	NumFrames	NumMarkers	Units	OrigDataRate	OrigDataStartFrame	OrigNumFrames
250.000000	250.000000	7	24	m	250.000000	1	479
Frame#	Time	L.Toe.Tip			R.Toe.Tip			L.Ankle.Lat			R.Ankle.Lat			L.Ankle.Med			R.Ankle.Med			L.Heel			R.Heel			L.Knee.Lat			R.Knee.Lat			L.Knee.Med			R.Knee.Med			L.Thigh.Upper			R.Thigh.Upper			L.ASIS			R.ASIS			V.Sacral			L.Acromium			R.Acromium			C7			L.Elbow			R.Elbow			L.Wrist.Lat			R.Wrist.Lat
		X1	Y1	Z1	X2	Y2	Z2	X3	Y3	Z3	X4	Y4	Z4	X5	Y5	Z5	X6	Y6	Z6	X7	Y7	Z7	X8	Y8	Z8	X9	Y9	Z9	X10	Y10	Z10	X11	Y11	Z11	X12	Y12	Z12	X13	Y13	Z13	X14	Y14	Z14	X15	Y15	Z15	X16	Y16	Z16	X17	Y17	Z17	X18	Y18	Z18	X19	Y19	Z19	X20	Y20	Z20	X21	Y21	Z21	X22	Y22	Z22	X23	Y23	Z23	X24	Y24	Z24

1	0	-1.5212881	0.036771669	-0.060716531	-0.98935534	0.079647871	0.0664201	-1.6707552	0.079872593	-0.093545784	-1.138608	0.07318164	0.090814975	-1.6443489	0.096899769	0.00053441348	-1.1269497	0.11145229	-2.364822e-05	NaN	NaN	NaN	-1.192805	0.037695379	0.034464737	-1.5214792	0.47069489	-0.15304441	-1.1723564	0.53065227	0.1359562	-1.5250189	0.47307874	-0.027424199	-1.175139	0.51255748	0.0098318683	-1.4033815	0.87658626	-0.19635	-1.3825985	0.87864602	0.17467967	-1.2990036	0.94832097	-0.13943494	-1.302796	0.95768712	0.10083994	-1.4646756	1.0201992	-0.020287463	-1.2481631	1.404474	-0.17012002	-1.305277	1.4144747	0.15178524	-1.3391329	1.4630949	-0.016886364	-1.3544494	1.0476666	-0.2654176	NaN	NaN	NaN	-1.120442	0.91444547	-0.21609641	-1.356134	0.8432407	0.27151149
2	0.004	-1.5212427	0.036670883	-0.060789721	-0.96984387	0.082701727	0.067322157	-1.6706511	0.08068991	-0.093370353	-1.1197197	0.072641054	0.091407542	-1.6438842	0.097575062	0.00063054687	-1.1087373	0.11139086	0.00076855187	NaN	NaN	NaN	-1.1726283	0.036153885	0.035220707	-1.5192817	0.47088153	-0.15328469	-1.165847	0.52930399	0.13637817	-1.5226026	0.4732506	-0.027557846	-1.167979	0.51097585	0.010222715	-1.39765	0.87534163	-0.19606974	-1.3765294	0.87693308	0.17484803	-1.2927634	0.94680489	-0.13941678	-1.2964048	0.95606656	0.10092707	-1.4574812	1.0183074	-0.018294147	-1.2422113	1.4030911	-0.16977878	-1.3000099	1.4128259	0.15219727	-1.3334666	1.4617419	-0.016628058	-1.3471408	1.0458345	-0.26550521	NaN	NaN	NaN	-1.112169	0.91468643	-0.21512337	-1.3508051	0.84151139	0.272116
3	0.008	-1.5211966	0.036589461	-0.060864215	-0.95063332	0.086002682	0.068195734	-1.6704935	0.08152319	-0.093227291	-1.1008993	0.072311104	0.09210751	-1.6433906	0.09828305	0.00070570991	-1.0907389	0.11141803	0.0015785788	NaN	NaN	NaN	-1.1526357	0.034719697	0.035997595	-1.5169718	0.47103687	-0.15352155	-1.1594037	0.52788694	0.136831	-1.5201433	0.47337183	-0.027672298	-1.1608698	0.50933299	0.010615321	-1.3918949	0.87408397	-0.19578399	-1.3704457	0.87517067	0.17500994	-1.2864649	0.94529833	-0.13936279	-1.2900176	0.95443713	0.10100821	-1.4506205	1.0164568	-0.016977727	-1.2362463	1.4017019	-0.16942339	-1.2946728	1.4111504	0.15258389	-1.3278333	1.4603484	-0.016330316	-1.3398371	1.0440093	-0.26559244	NaN	NaN	NaN	-1.1039365	0.91487471	-0.21416792	-1.3455158	0.83975831	0.27271374
4	0.012	-1.5211494	0.036527946	-0.060940434	-0.93186902	0.089700009	0.068976068	-1.6702548	0.082382724	-0.093134734	-1.0822716	0.072272625	0.092913999	-1.6428691	0.099015333	0.00074284132	-1.0730652	0.1116148	0.0024018359	NaN	NaN	NaN	-1.1329298	0.033453706	0.036819082	-1.5144596	0.47114519	-0.15375347	-1.1529996	0.52637428	0.13730587	-1.5175781	0.47341171	-0.027769385	-1.1538197	0.50759513	0.010986763	-1.3860952	0.87281179	-0.19551531	-1.3642969	0.87334555	0.1751719	-1.2800765	0.94380415	-0.1392523	-1.2836123	0.95278992	0.10108131	-1.4441256	1.0146232	-0.016420987	-1.2302571	1.4003042	-0.16905071	-1.2892467	1.4094403	0.15294995	-1.3222173	1.4588968	-0.016045051	-1.3325358	1.0421859	-0.26567488	NaN	NaN	NaN	-1.0957632	0.91498672	-0.21323713	-1.3402422	0.83797265	0.27329661
5	0.016	-1.5211002	0.036476853	-0.061017852	-0.91362615	0.093787733	0.069614211	-1.6699329	0.083267587	-0.093097766	-1.0640383	0.072479799	0.093733515	-1.6423349	0.099746301	0.00073410978	-1.055766	0.11202447	0.0032243346	NaN	NaN	NaN	-1.1135795	0.032372585	0.037717797	-1.5117031	0.47120057	-0.15397589	-1.1465733	0.52476879	0.13777474	-1.5147977	0.47337683	-0.027867249	-1.1468113	0.50576526	0.011307958	-1.380247	0.87153149	-0.1953027	-1.3580502	0.87147471	0.17534087	-1.273641	0.9423236	-0.1391115	-1.2771661	0.95112777	0.1011523	-1.4378345	1.0127697	-0.016260266	-1.2242434	1.3988998	-0.16866352	-1.2837509	1.4077045	0.15330885	-1.3165594	1.4573931	-0.015830387	-1.3252434	1.0403536	-0.26572421	NaN	NaN	NaN	-1.0876557	0.91503014	-0.21232292	-1.3349439	0.83616049	0.2738593
6	0.02	-1.5210458	0.036429544	-0.061095172	-0.89598675	0.098163402	0.070153288	-1.6695343	0.084174653	-0.093121895	-1.0463413	0.072862609	0.094486632	-1.641794	0.10047838	0.00068046184	-1.0388869	0.11263001	0.0040385383	NaN	NaN	NaN	-1.0946131	0.031470415	0.038753321	-1.5086928	0.47119012	-0.15417458	-1.1400959	0.52308074	0.13821053	-1.5117253	0.47328867	-0.027978653	-1.1398217	0.50386296	0.011569123	-1.3743538	0.87024307	-0.19515222	-1.3517039	0.8695773	0.17551172	-1.2672746	0.94084885	-0.13902634	-1.2706543	0.94946042	0.10122533	-1.4315958	1.0108964	-0.016137311	-1.2182062	1.3974902	-0.16826964	-1.2782053	1.4059567	0.15366803	-1.3108128	1.4558519	-0.015671407	-1.3179593	1.0385128	-0.26570026	-1.4383797	1.080243	0.23654583	-1.0795966	0.91502163	-0.21140671	-1.3296015	0.83432868	0.27440666
7	0.024	-1.5209823	0.036382722	-0.061170632	-0.87902315	0.10270677	0.070686109	-1.6690782	0.085104506	-0.093217136	-1.0291682	0.073410417	0.095187943	-1.6412426	0.10123387	0.00058263853	-1.0224939	0.11337733	0.0048375521	NaN	NaN	NaN	-1.0760591	0.030744621	0.039973257	-1.5054288	0.47109229	-0.15433577	-1.1335508	0.52134159	0.13860493	-1.5083554	0.47315478	-0.028103916	-1.1328511	0.50191343	0.011774367	-1.3684283	0.86894229	-0.19503196	-1.3452582	0.86766199	0.17567405	-1.2610901	0.93935655	-0.13908226	-1.2640458	0.94779825	0.10129344	-1.4253223	1.0090246	-0.015888643	-1.2121534	1.3960777	-0.16788394	-1.2726206	1.4042138	0.15403482	-1.3049831	1.4542885	-0.015516583	-1.3106801	1.03669	-0.26558536	-1.4329913	1.0784807	0.23576738	-1.0715678	0.91496629	-0.2104799	-1.3242108	0.83248506	0.27494681
